# File created by Blade
# Date/Time:  Wed Sep 24 19:53:44 2014
# Frame Rate: 120.000 fps
#------------------------------------------------------
:FULLY-SPECIFIED
:DEGREES
3756
root -6.061975 32.804994 -3.620955 9.337717 19.388858 -0.040305
Spine -13.143513 28.498694 -1.879232
Head -7.888705 -47.349018 9.842403
LeftShoulder -25.198787 23.019629 15.131889
LeftArm -8.349933 -81.091739 -32.817007
LeftForeArm -45.092613 -0.000000 123.053237
LeftHand -12.044159 -0.000000 -1.209435
LeftHandThumb1 -26.253704 0.000000 33.147579
RightShoulder -23.837800 7.559914 -22.339927
RightArm -22.780327 -6.523210 83.995554
RightForeArm -24.254374 -0.000000 24.657414
RightHand -8.519554 -0.000000 7.481527
RightHandThumb1 -24.326973 -0.000000 -32.862282
LeftUpLeg -4.987142 -6.879454 6.315220
LeftLeg -2.014883 -0.000000 0.000000
LeftFoot -8.477356 2.105959 -19.071136
LeftToeBase 11.635717 -0.000000 -0.000000
RightUpLeg -0.107599 -20.058130 -2.057132
RightLeg 0.098627 -0.000000 -0.000000
RightFoot -7.701222 -8.076085 -10.544536
RightToeBase -0.834497 -0.000000 0.000000
3757
root -6.063886 32.804170 -3.621716 9.323473 19.434445 -0.044442
Spine -13.096122 28.471077 -1.888224
Head -7.997607 -47.339802 9.877987
LeftShoulder -25.274410 23.130824 15.084646
LeftArm -7.555148 -81.618054 -33.685528
LeftForeArm -48.229455 0.000000 124.556347
LeftHand -10.995608 -0.000000 -4.065033
LeftHandThumb1 -26.253704 0.000000 33.147579
RightShoulder -23.889216 7.609903 -22.359718
RightArm -22.649822 -6.580069 83.978967
RightForeArm -24.302071 -0.000000 24.825594
RightHand -8.405359 -0.000000 7.478778
RightHandThumb1 -24.326973 -0.000000 -32.862282
LeftUpLeg -4.988288 -6.896159 6.325158
LeftLeg -2.009867 -0.000000 0.000000
LeftFoot -8.473443 2.088386 -19.072544
LeftToeBase 11.665088 -0.000000 -0.000000
RightUpLeg -0.094727 -20.058258 -2.046875
RightLeg 0.108048 -0.000000 -0.000000
RightFoot -7.707666 -8.134977 -10.547698
RightToeBase -0.799311 -0.000000 0.000000
3758
root -6.066964 32.803483 -3.623713 9.317236 19.489694 -0.057764
Spine -13.054747 28.443702 -1.891426
Head -8.117130 -47.363602 9.899241
LeftShoulder -25.319104 23.219337 15.006660
LeftArm -7.096418 -82.212932 -34.132650
LeftForeArm -50.599286 -0.000000 126.364626
LeftHand -9.811590 -0.000000 -6.575478
LeftHandThumb1 -26.253704 0.000000 33.147579
RightShoulder -23.967634 7.647511 -22.370919
RightArm -22.522585 -6.675232 83.971389
RightForeArm -24.398026 -0.000000 25.058279
RightHand -8.486122 -0.000000 7.361117
RightHandThumb1 -24.326973 -0.000000 -32.862282
LeftUpLeg -5.003881 -6.857533 6.343844
LeftLeg -2.007968 -0.000000 0.000000
LeftFoot -8.452250 2.010882 -19.032973
LeftToeBase 11.652811 -0.000000 -0.000000
RightUpLeg -0.102119 -20.106918 -2.021588
RightLeg 0.130073 -0.000000 -0.000000
RightFoot -7.715316 -8.152784 -10.598616
RightToeBase -0.770041 -0.000000 0.000000
3759
root -6.067816 32.802723 -3.625402 9.307942 19.537869 -0.052143
Spine -13.012568 28.424580 -1.914716
Head -8.193628 -47.421537 9.878366
LeftShoulder -25.370858 23.342150 14.975819
LeftArm -6.138800 -82.877603 -35.129766
LeftForeArm -51.928652 -0.000000 128.421744
LeftHand -8.674624 -0.000000 -8.957544
LeftHandThumb1 -26.253704 0.000000 33.147579
RightShoulder -24.043247 7.675738 -22.374992
RightArm -22.396993 -6.697527 83.937395
RightForeArm -24.449436 -0.000000 25.277382
RightHand -8.462426 0.000000 7.221116
RightHandThumb1 -24.326973 -0.000000 -32.862282
LeftUpLeg -5.015913 -6.856489 6.341621
LeftLeg -1.985263 -0.000000 0.000000
LeftFoot -8.446897 1.969199 -19.010786
LeftToeBase 11.666411 -0.000000 -0.000000
RightUpLeg -0.093317 -20.103082 -2.024895
RightLeg 0.147102 -0.000000 -0.000000
RightFoot -7.720062 -8.194859 -10.570489
RightToeBase -0.819696 -0.000000 0.000000
3760
root -6.068745 32.802241 -3.626782 9.280027 19.602317 -0.049936
Spine -12.946543 28.391901 -1.910684
Head -8.222643 -47.486424 9.813007
LeftShoulder -25.495999 23.550438 14.907199
LeftArm -3.598298 -83.676473 -37.694998
LeftForeArm -52.361730 0.000000 130.725614
LeftHand -7.958838 -0.000000 -10.936147
LeftHandThumb1 -26.253704 0.000000 33.147579
RightShoulder -24.104317 7.701564 -22.402808
RightArm -22.287606 -6.663140 83.915121
RightForeArm -24.462479 -0.000000 25.513022
RightHand -8.456283 -0.000000 7.230373
RightHandThumb1 -24.326973 -0.000000 -32.862282
LeftUpLeg -5.004758 -6.902065 6.347367
LeftLeg -1.983059 -0.000000 0.000000
LeftFoot -8.434350 1.945324 -19.036276
LeftToeBase 11.630888 -0.000000 -0.000000
RightUpLeg -0.066378 -20.095970 -2.028700
RightLeg 0.168668 -0.000000 -0.000000
RightFoot -7.725107 -8.261399 -10.555953
RightToeBase -0.848649 -0.000000 0.000000
3761
root -6.070454 32.800509 -3.628442 9.274311 19.670260 -0.043261
Spine -12.901227 28.345004 -1.933823
Head -8.337998 -47.448189 9.805237
LeftShoulder -25.574249 23.693456 14.909337
LeftArm -1.712752 -84.492703 -39.612397
LeftForeArm -52.358892 -0.000000 133.152249
LeftHand -7.185305 -0.000000 -12.894185
LeftHandThumb1 -26.253704 0.000000 33.147579
RightShoulder -24.180897 7.733177 -22.416883
RightArm -22.186997 -6.587778 83.869709
RightForeArm -24.578998 -0.000000 25.786905
RightHand -8.568942 -0.000000 7.195865
RightHandThumb1 -24.326973 -0.000000 -32.862282
LeftUpLeg -5.023672 -6.897306 6.345690
LeftLeg -1.961786 -0.000000 0.000000
LeftFoot -8.435320 1.895534 -18.994968
LeftToeBase 11.642723 -0.000000 -0.000000
RightUpLeg -0.055468 -20.121071 -2.028183
RightLeg 0.178378 -0.000000 -0.000000
RightFoot -7.747875 -8.306314 -10.573973
RightToeBase -0.762265 -0.000000 0.000000
3762
root -6.073932 32.799671 -3.632240 9.284522 19.753640 -0.043736
Spine -12.875931 28.286569 -1.936247
Head -8.377943 -47.435766 9.699332
LeftShoulder -25.610635 23.825571 14.951832
LeftArm 0.123520 -85.278138 -41.500625
LeftForeArm -52.368128 -0.000000 135.728624
LeftHand -6.574368 -0.000000 -14.444583
LeftHandThumb1 -26.253704 0.000000 33.147579
RightShoulder -24.251086 7.778506 -22.456704
RightArm -22.131911 -6.517743 83.830041
RightForeArm -24.707550 0.000000 26.090708
RightHand -8.596666 -0.000000 7.146894
RightHandThumb1 -24.326973 -0.000000 -32.862282
LeftUpLeg -5.061180 -6.899536 6.356627
LeftLeg -1.959375 -0.000000 0.000000
LeftFoot -8.411013 1.836337 -19.003130
LeftToeBase 11.634951 -0.000000 -0.000000
RightUpLeg -0.073411 -20.139771 -2.006365
RightLeg 0.197359 -0.000000 -0.000000
RightFoot -7.753053 -8.376902 -10.565964
RightToeBase -0.778267 -0.000000 0.000000
3763
root -6.076507 32.798471 -3.635219 9.295818 19.831434 -0.039086
Spine -12.846496 28.213217 -1.939283
Head -8.451162 -47.401230 9.619663
LeftShoulder -25.657609 23.992802 15.018297
LeftArm 2.293522 -86.029597 -43.740158
LeftForeArm -52.730651 -0.000000 138.332303
LeftHand -5.989877 -0.000000 -16.358696
LeftHandThumb1 -26.253704 0.000000 33.147579
RightShoulder -24.335128 7.810299 -22.498342
RightArm -22.046638 -6.502641 83.813178
RightForeArm -24.746687 -0.000000 26.340724
RightHand -8.601770 -0.000000 7.053296
RightHandThumb1 -24.326973 -0.000000 -32.862282
LeftUpLeg -5.096485 -6.904048 6.363435
LeftLeg -1.951006 -0.000000 0.000000
LeftFoot -8.399854 1.774863 -19.002623
LeftToeBase 11.680601 -0.000000 -0.000000
RightUpLeg -0.087350 -20.149253 -1.992975
RightLeg 0.214637 -0.000000 -0.000000
RightFoot -7.757433 -8.447544 -10.550202
RightToeBase -0.801480 -0.000000 0.000000
3764
root -6.078630 32.797480 -3.637568 9.302140 19.906537 -0.038785
Spine -12.810609 28.156145 -1.919466
Head -8.516211 -47.374086 9.510779
LeftShoulder -25.724002 24.158870 15.051790
LeftArm 5.777565 -86.707120 -47.236467
LeftForeArm -53.294751 -0.000000 140.918201
LeftHand -5.255951 0.000000 -18.311504
LeftHandThumb1 -26.253704 0.000000 33.147579
RightShoulder -24.420123 7.830799 -22.550423
RightArm -21.974343 -6.475411 83.795382
RightForeArm -24.793224 -0.000000 26.638481
RightHand -8.726162 -0.000000 6.988798
RightHandThumb1 -24.326973 -0.000000 -32.862282
LeftUpLeg -5.124608 -6.872697 6.367206
LeftLeg -1.949026 -0.000000 0.000000
LeftFoot -8.366997 1.699833 -18.968977
LeftToeBase 11.637117 -0.000000 -0.000000
RightUpLeg -0.093394 -20.158260 -1.978915
RightLeg 0.228435 -0.000000 -0.000000
RightFoot -7.774695 -8.516455 -10.558367
RightToeBase -0.749565 -0.000000 0.000000
3765
root -6.080897 32.795999 -3.638612 9.314346 19.983991 -0.033046
Spine -12.787552 28.098410 -1.922026
Head -8.614199 -47.316799 9.419906
LeftShoulder -25.778889 24.330730 15.141746
LeftArm 10.959826 -87.307632 -52.465829
LeftForeArm -53.995471 -0.000000 143.457138
LeftHand -4.578666 -0.000000 -20.255412
LeftHandThumb1 -26.253704 0.000000 33.147579
RightShoulder -24.532605 7.839892 -22.588815
RightArm -21.875160 -6.438852 83.760526
RightForeArm -24.852215 -0.000000 26.878762
RightHand -8.714949 -0.000000 6.942353
RightHandThumb1 -24.326973 -0.000000 -32.862282
LeftUpLeg -5.154155 -6.860549 6.370525
LeftLeg -1.946517 -0.000000 0.000000
LeftFoot -8.347344 1.626654 -18.969996
LeftToeBase 11.659217 -0.000000 -0.000000
RightUpLeg -0.101431 -20.186552 -1.966382
RightLeg 0.240444 -0.000000 -0.000000
RightFoot -7.780319 -8.572906 -10.551996
RightToeBase -0.780681 -0.000000 0.000000
3766
root -6.083088 32.794184 -3.639863 9.349023 20.042677 -0.019919
Spine -12.782492 28.054078 -1.945280
Head -8.732588 -47.238440 9.291691
LeftShoulder -25.750396 24.439127 15.275879
LeftArm 14.910415 -87.918781 -56.440650
LeftForeArm -55.092317 -0.000000 145.916940
LeftHand -4.160998 -0.000000 -22.363521
LeftHandThumb1 -26.253704 0.000000 33.147579
RightShoulder -24.649873 7.859730 -22.619024
RightArm -21.805017 -6.378570 83.705609
RightForeArm -24.866910 -0.000000 27.164517
RightHand -8.651643 -0.000000 6.989516
RightHandThumb1 -24.326973 -0.000000 -32.862282
LeftUpLeg -5.194200 -6.849594 6.365923
LeftLeg -1.958208 -0.000000 0.000000
LeftFoot -8.318666 1.588856 -18.932733
LeftToeBase 11.635708 -0.000000 -0.000000
RightUpLeg -0.134107 -20.177794 -1.956174
RightLeg 0.255282 -0.000000 -0.000000
RightFoot -7.805060 -8.651578 -10.558829
RightToeBase -0.732976 -0.000000 0.000000
3767
root -6.085178 32.792516 -3.641574 9.374929 20.088423 -0.010366
Spine -12.762706 28.019267 -1.947318
Head -8.809927 -47.200914 9.147146
LeftShoulder -25.829639 24.631865 15.359726
LeftArm 27.453570 -88.382691 -69.020907
LeftForeArm -56.049768 -0.000000 148.265863
LeftHand -3.567129 -0.000000 -24.397013
LeftHandThumb1 -26.253704 0.000000 33.147579
RightShoulder -24.752756 7.900058 -22.659153
RightArm -21.750456 -6.360933 83.671493
RightForeArm -24.944637 -0.000000 27.404123
RightHand -8.711287 -0.000000 6.969216
RightHandThumb1 -24.326973 -0.000000 -32.862282
LeftUpLeg -5.224635 -6.822802 6.364332
LeftLeg -1.971482 -0.000000 0.000000
LeftFoot -8.286085 1.520701 -18.930485
LeftToeBase 11.629905 -0.000000 -0.000000
RightUpLeg -0.165106 -20.171877 -1.945994
RightLeg 0.274345 -0.000000 -0.000000
RightFoot -7.824435 -8.713979 -10.560611
RightToeBase -0.711121 -0.000000 0.000000
3768
root -6.088040 32.790956 -3.644345 9.410873 20.138634 0.008485
Spine -12.745459 27.988301 -1.958471
Head -8.905556 -47.182328 9.007066
LeftShoulder -25.810935 24.788971 15.509728
LeftArm 47.403997 -88.836711 -89.094651
LeftForeArm -57.223963 -0.000000 150.466430
LeftHand -3.210238 -0.000000 -26.444807
LeftHandThumb1 -26.253704 0.000000 33.147579
RightShoulder -24.843568 7.938725 -22.698605
RightArm -21.702421 -6.306133 83.637728
RightForeArm -25.068259 -0.000000 27.620937
RightHand -8.611155 -0.000000 6.670346
RightHandThumb1 -24.326973 -0.000000 -32.862282
LeftUpLeg -5.273645 -6.803198 6.354893
LeftLeg -1.964340 -0.000000 0.000000
LeftFoot -8.268675 1.468842 -18.941873
LeftToeBase 11.638140 -0.000000 -0.000000
RightUpLeg -0.197937 -20.139826 -1.939731
RightLeg 0.285432 -0.000000 -0.000000
RightFoot -7.842803 -8.816201 -10.565609
RightToeBase -0.673556 -0.000000 0.000000
